<svg width="19" height="21" viewBox="0 0 19 21" fill="none" xmlns="http://www.w3.org/2000/svg">
<path fill-rule="evenodd" clip-rule="evenodd" d="M10.536 10.3618C13.2606 10.7142 15.755 8.79115 16.1074 6.06655C16.4597 3.34196 14.5367 0.847575 11.8121 0.495192C9.08748 0.142809 6.5931 2.06587 6.24072 4.79046C5.88833 7.51506 7.81139 10.0094 10.536 10.3618ZM17.9951 19.2491C19.0322 17.7261 18.569 16.8857 17.6426 15.2048C16.2309 12.6434 13.6595 10.7661 10.5367 10.3622C7.41394 9.95836 4.44952 11.1196 2.43262 13.2376C1.10904 14.6275 0.44725 15.3224 1.06277 17.0591C1.6783 18.7958 3.06783 18.9756 5.8469 19.335L12.7894 20.2329C15.5685 20.5923 16.958 20.772 17.9951 19.2491Z" fill="white"/>
</svg>
