<svg width="22" height="15" viewBox="0 0 22 15" fill="none" xmlns="http://www.w3.org/2000/svg">
<path fill-rule="evenodd" clip-rule="evenodd" d="M11 6.6667C12.8409 6.6667 14.3333 5.1743 14.3333 3.33333C14.3333 1.49238 12.8409 0 11 0C9.15906 0 7.66663 1.49238 7.66663 3.33333C7.66663 5.1743 9.15906 6.6667 11 6.6667ZM11 5.6667C12.2887 5.6667 13.3333 4.622 13.3333 3.33333C13.3333 2.04467 12.2887 1 11 1C9.71126 1 8.66663 2.04467 8.66663 3.33333C8.66663 4.622 9.71126 5.6667 11 5.6667Z" fill="white"/>
<path fill-rule="evenodd" clip-rule="evenodd" d="M6.5 5.5C6.5 6.8807 5.38071 8 4 8C2.61929 8 1.5 6.8807 1.5 5.5C1.5 4.11929 2.61929 3 4 3C5.38071 3 6.5 4.11929 6.5 5.5ZM5.5 5.5C5.5 6.3284 4.82843 7 4 7C3.17157 7 2.5 6.3284 2.5 5.5C2.5 4.67157 3.17157 4 4 4C4.82843 4 5.5 4.67157 5.5 5.5Z" fill="white"/>
<path fill-rule="evenodd" clip-rule="evenodd" d="M0.5 14V12C0.5 10.067 2.067 8.5 4 8.5C5.22483 8.5 6.3027 9.1292 6.92809 10.0819C7.64816 8.5559 9.2008 7.5 11 7.5C12.7992 7.5 14.3518 8.5559 15.0719 10.0819C15.6973 9.1292 16.7752 8.5 18 8.5C19.933 8.5 21.5 10.067 21.5 12V14C21.5 14.2761 21.2761 14.5 21 14.5H1C0.72386 14.5 0.5 14.2761 0.5 14ZM1.5 12C1.5 10.6193 2.61929 9.5 4 9.5C5.38071 9.5 6.5 10.6193 6.5 12V13.5H1.5V12ZM20.5 13.5V12C20.5 10.6193 19.3807 9.5 18 9.5C16.6193 9.5 15.5 10.6193 15.5 12V13.5H20.5ZM14.5 13.5V12C14.5 10.067 12.933 8.5 11 8.5C9.067 8.5 7.5 10.067 7.5 12V13.5H14.5Z" fill="white"/>
<path fill-rule="evenodd" clip-rule="evenodd" d="M20.5 5.5C20.5 6.8807 19.3807 8 18 8C16.6193 8 15.5 6.8807 15.5 5.5C15.5 4.11929 16.6193 3 18 3C19.3807 3 20.5 4.11929 20.5 5.5ZM19.5 5.5C19.5 6.3284 18.8284 7 18 7C17.1716 7 16.5 6.3284 16.5 5.5C16.5 4.67157 17.1716 4 18 4C18.8284 4 19.5 4.67157 19.5 5.5Z" fill="white"/>
</svg>
